<?xml version="1.0" encoding="utf-8"?>
<!-- Generator: Adobe Illustrator 27.3.1, SVG Export Plug-In . SVG Version: 6.00 Build 0)  -->
<svg version="1.1" id="Layer_1" xmlns="http://www.w3.org/2000/svg" xmlns:xlink="http://www.w3.org/1999/xlink" x="0px" y="0px"
	 viewBox="0 0 663.1 569.5" style="enable-background:new 0 0 663.1 569.5;" xml:space="preserve">
<style type="text/css">
	.st0{fill:none;stroke:#000000;stroke-width:0.5413;stroke-linecap:round;stroke-linejoin:round;stroke-miterlimit:10;}
	.st1{fill:none;stroke:#000000;stroke-width:0.4588;stroke-linecap:round;stroke-linejoin:round;stroke-miterlimit:10;}
</style>
<g>
	<path class="st0" d="M179.9,445.7c-24-39.5-23-81.4-20.2-81.4c18.4,26.6,62.9,13.4,62.5-19c-0.6-47.5-88.3-46.9-78.9,57.9
		c-20.5-33.3-32.5-72.4-33.1-114.2c42.5,30.8,77.2-17.3,48.1-46.1c-27.1-26.8-70.2-8.2-72.7,28.9c-13,193.6,194.4,325,365.6,235.5
		c0,0,0,0,0,0c6.4,13.6,13.6,28.7,24.1,46c0.7,6.4,14.4,9.3,14.4,9.3c0,0,4-1.9,4-1.9l1.6,0.9c2,1.1,4.6,0.2,5.5-1.9l0.8-2.1
		c0.6-1.5,2.5-1.7,3.4-0.4c0.7,1,2.3,0.7,2.6-0.5l0.7-2.8c0.5-2,3-2.7,4.5-1.3l1,1c1.6,1.6,4.4,0.7,4.8-1.5l1.1-5.2
		c0.6-2.3,3.4,3.2,4.4,0.2c0-1.1-6-37.5-13.8-54c1.6-8.5,6.4-35.5,6.4-35.5c118.7-124.5,78.5-331.8-81.5-401.4
		c-10.6-6.4-27.9-1.4-27.9,15.1c0,17.8,20.2,22.2,30.3,13.3c120.2,61,160.4,214.6,85,326.4c0.4-5.8,0.4-10.9,0.1-15.1
		c-1.9-24.5-26.1-69-27.9-71.8c-7.5-12-26.2-52.4-47.2-78.6c-21-26.2-51.4-38.2-54-47.4c-10.7-36.8-22.6-136.4-153.3-94.9
		c-13.4,4.3-27.5,12.5-35.2,17.3L42.4,132.4c0,0-12.7,3.3-5.5,4.3c21.5,3,76.6,5.3,92.3,7.3c33.8,4.3,56,7.3,73,13.7
		c55.1,20.5,36.6,51.3,37.9,98.3c1.9,72,90.5,130.3,127.9,157c11.5,8.2-16.2,27.3-29.5,34C259.5,422.2,195.5,440.8,179.9,445.7z"/>
	<path class="st0" d="M200,465.6c65.3-16.2,136.8-4.4,195.1,37.4C329.8,520.9,257.4,508.9,200,465.6z"/>
	<path class="st0" d="M372.4,460.8c-4.6-7.7-6.2-16.3,0.4-22.3c1.4-0.8,8.9-11.5,19.1-5c24.9,15.7,37.2,31.2,48.3,51.7
		C410.7,500.7,434.8,491.4,372.4,460.8z"/>
	<path class="st0" d="M468.1,300.8c55,86.4,49.6,81.4,33.6,197.5c-1.4,23.6-7.7,23.3-1.8-25c5.5-44.4,15.2-72.5,0.8-104.2
		C494.6,355.9,453.8,278.3,468.1,300.8z"/>
	<polygon class="st0" points="410.4,282.1 410,289 401.9,286.1 398.3,272.3 	"/>
	<path class="st0" d="M257.3,117.5c4.2-0.3,8,2.2,8.4,5.5c0.4,3.3-2.8,6.2-6.9,6.6c-4.2,0.3-8-2.2-8.4-5.5
		C249.9,120.8,253.1,117.8,257.3,117.5z"/>
	<path class="st0" d="M219,141.6c47.2,26.8,89.2-8.5,89.3-8.4c0.8,0.7,1.1,9.1,1.3,12.6c21.6-16.5,20.2,2.1,17.2,5.7
		c10.1-1.5,15,1.9,14.8,9.7c3.9,1.8,7.9,3,12.1,3.8c-0.6,1,13-1.1,0.6,6.5c17.4-1.3,14.8,37.6,40.2,44.7
		c-3.5,2.9-49.8-16.9-54.8-19.1c0.7,6.1-9.7,8.1-14.2-2.3c-6.2-0.7-2.1-6.1-16.5-20.5c-70-2.8,23.5,2.9-31.3,35.7
		c-5.5,16.6-7.7,27-8.3,33.8l3.2,3.2c0.4,0,1.4,0.1,1.6-0.2c0.2-0.3,0-1.8,0.6-3.5c1.4-3.5,5.8-6.1,12.5-3.8
		c0.3-8.4,0.8-10.2,1.9-11.6c2.4-2.8,6.3-1.6,11.2-3c7.1-2,11.7-2.7,14.8-9.4c3.4-7.4,1.7,8.6-11.4,12.8c-9.4,3-11.3,0.6-11.7,3.6
		c0,0.1-0.3,2.2-0.9,10.6c0.2,1.7-1.7,2.5-2.9,1.9c-2.4-1-5.3-2.3-7.8-1.1c-2.8,1.2-1.5,3.4-2.5,5.4c-1.4,3-5.3,2.7-8.1,2.9l-0.4,0
		c1.1,7.1,4.9,6.1,1.6,12.2c-4.7,8.5,11.6,37.5,35.3,42.1c8.3-16.4,37,7.9,39.1,7.9c6.1,0,17.6-8.3,19-8.9c4-1.6,7.1,0.8,10,4
		c8.3,9,22-2.5,26.8-2.5c19.3,0,53.1,46.9,67.4,63.2l0.1,0.1c1.2,1.6,5.7,6.2,20.6,14.6l-1,2.9c-9.4-1.5-18.1-6.3-24.4-13.5
		c-61.6-70.2-49-64-72.1-56.9l39.6,47.3c1.4,1.8,5.9,6.4,20.6,14.7l-1,2.9c-9.4-1.5-18.1-6.3-24.4-13.5l-41.9-50.1
		c-12.8,0.5-15.7-6.4-17.6-7.1c-1-0.1-3.5,2.5-9.4,5.4l44.2,49.8c1.3,1.6,5.9,6.3,20.5,14.6l-1,2.9c-9.4-1.5-18.1-6.3-24.4-13.5
		l-45.5-51.2c-10,3.1-12.4-7-33-10.5c-13.5-2.3-1.2,27.6,16.7,27.3c13.1-0.3,42.5,68.1,79.3,62.8c0.9,0.9,6.8,2.3,8.4,1.7
		c6.1,11.3,2.6,14.3,6.3,26.2c11,35.9,7.2,34.8-10.2,14.7C402.1,420.9,379.7,403,360,388c-57.5-43.9-118.2-91.3-106.9-162.6
		c7.4-46.3-15.2-67.1-45.4-77C207.6,142.5,213.9,138.7,219,141.6z"/>
	<polygon class="st0" points="392.2,251.7 391.8,258.7 383.7,255.8 380.1,242 	"/>
	<polygon class="st0" points="372.2,282.1 371.7,289 363.6,286.2 360,272.3 	"/>
	<polygon class="st0" points="354,251.7 353.5,258.7 345.4,255.8 341.8,242 	"/>
	<polygon class="st0" points="336.3,282.4 334.9,289.4 327.2,286.1 325.5,272 	"/>
	<polygon class="st0" points="318.1,252.1 316.7,259 309,255.7 307.3,241.6 	"/>
</g>
<path class="st1" d="M464.2,533.7c-39.5,21.1-84.7,33.1-132.6,33.1c-155.8,0-282.1-126.3-282.1-282.1c0-52.5,14.3-101.6,39.3-143.7"
	/>
<path class="st1" d="M96.7,128.5C147.3,52.6,233.6,2.7,331.5,2.7c155.8,0,282.1,126.3,282.1,282.1c0,86.5-39,163.9-100.3,215.7"/>
</svg>
