<?xml version="1.0" encoding="UTF-8" standalone="no"?>
<!-- Created with Inkscape (http://www.inkscape.org/) -->

<svg
   version="1.1"
   id="svg10507"
   width="1200"
   height="1200"
   viewBox="0 0 1200 1200"
   sodipodi:docname="mouse-clipart-pdv.svg"
   inkscape:version="1.2 (dc2aedaf03, 2022-05-15)"
   xmlns:inkscape="http://www.inkscape.org/namespaces/inkscape"
   xmlns:sodipodi="http://sodipodi.sourceforge.net/DTD/sodipodi-0.dtd"
   xmlns="http://www.w3.org/2000/svg"
   xmlns:svg="http://www.w3.org/2000/svg">
  <defs
     id="defs10511">
    <clipPath
       clipPathUnits="userSpaceOnUse"
       id="clipPath10523">
      <path
         d="M 0,900 H 900 V 0 H 0 Z"
         id="path10521" />
    </clipPath>
  </defs>
  <sodipodi:namedview
     id="namedview10509"
     pagecolor="#ffffff"
     bordercolor="#000000"
     borderopacity="0.25"
     inkscape:showpageshadow="2"
     inkscape:pageopacity="0.0"
     inkscape:pagecheckerboard="0"
     inkscape:deskcolor="#d1d1d1"
     showgrid="false"
     inkscape:zoom="0.6975"
     inkscape:cx="600"
     inkscape:cy="600.71685"
     inkscape:window-width="1920"
     inkscape:window-height="1017"
     inkscape:window-x="-8"
     inkscape:window-y="-8"
     inkscape:window-maximized="1"
     inkscape:current-layer="g10515">
    <inkscape:page
       x="0"
       y="0"
       id="page10513"
       width="1200"
       height="1200" />
  </sodipodi:namedview>
  <g
     id="g10515"
     inkscape:groupmode="layer"
     inkscape:label="Page 1"
     transform="matrix(1.3333333,0,0,-1.3333333,0,1200)">
    <g
       id="g10517">
      <g
         id="g10519"
         clip-path="url(#clipPath10523)">
        <g
           id="g10525"
           transform="translate(240.2021,353.2559)">
          <path
             d="m 0,0 c -8.453,0 -15.306,-2.91 -15.306,-6.5 0,-3.59 6.853,-6.5 15.306,-6.5 8.454,0 15.306,2.91 15.306,6.5 C 15.306,-2.91 8.454,0 0,0 m 318.233,-63.424 c 0.724,1.297 1.434,2.602 2.115,3.924 3.015,5.899 5.731,11.975 8.019,18.228 2.237,6.266 4.102,12.675 5.586,19.187 0.032,0.147 0.057,0.292 0.088,0.439 1.38,6.38 2.306,12.861 2.895,19.374 0.047,0.662 0.104,1.326 0.158,1.989 0.082,1.004 0.161,2.008 0.21,3.013 l 0.209,5.017 c 0.028,3.346 0.035,6.694 -0.131,10.038 -0.281,6.689 -0.944,13.361 -1.956,19.979 -2.149,13.218 -5.738,26.174 -10.429,38.682 -4.821,12.462 -10.677,24.503 -17.479,35.966 -6.866,11.422 -14.528,22.361 -23.1,32.539 -8.522,10.211 -17.873,19.74 -28.121,28.216 -2.568,2.109 -5.204,4.138 -7.905,6.077 -2.688,1.955 -5.474,3.782 -8.338,5.472 -2.865,1.687 -5.82,3.241 -8.909,4.487 -3.08,1.222 -6.36,2.175 -9.672,2.13 3.299,-0.259 6.394,-1.481 9.302,-2.952 2.925,-1.458 5.708,-3.191 8.389,-5.06 5.364,-3.738 10.425,-7.906 15.21,-12.365 9.633,-8.854 18.355,-18.661 26.417,-28.938 7.99,-10.335 15.396,-21.124 21.836,-32.465 6.485,-11.308 12.178,-23.066 16.765,-35.238 8.953,-23.401 13.859,-48.437 12.976,-73.496 -0.032,-0.923 -0.055,-1.846 -0.103,-2.769 -0.301,-5.818 -0.955,-11.613 -1.862,-17.38 -0.104,-0.665 -0.197,-1.33 -0.308,-1.993 -1.128,-6.413 -2.657,-12.761 -4.524,-19.021 -1.839,-6.274 -4.187,-12.392 -6.726,-18.444 l -1.793,-4.028 -0.21,-0.472 c -0.663,-1.505 -1.439,-2.953 -2.149,-4.439 -1.38,-2.993 -3.026,-5.844 -4.553,-8.773 2.856,4.245 5.592,8.59 8.093,13.076 M 130.646,75.63 c 6.015,-0.675 11.998,-1.736 17.836,-3.38 5.932,-1.687 11.723,-3.979 17.057,-7.135 -5.225,3.333 -10.964,5.835 -16.876,7.734 -5.923,1.884 -12.027,3.175 -18.181,4.062 -0.081,0.011 -0.163,0.02 -0.245,0.031 -0.36,0.051 -0.72,0.089 -1.082,0.137 -11.891,1.584 -23.952,1.772 -35.926,0.981 C 81.164,77.265 69.15,75.558 57.322,72.863 41.747,96.645 12.64,79.833 12.64,79.833 14.473,73.417 22.372,57.25 18.973,54 8.139,49.834 17.973,46.667 16.64,44.333 15.306,41.999 9.89,33.166 2.556,23.5 c -5.24,-6.906 -20.391,8.054 -27.126,17.037 -2.001,2.669 -3.257,4.808 -3.29,5.692 -0.012,0.302 0.118,0.461 0.416,0.437 2.407,-0.196 3.208,1.23 2.379,2.611 -0.578,0.964 -1.939,1.908 -4.129,2.268 -1.736,0.286 -2.69,2.028 -3.019,4.618 -0.069,0.538 -0.11,1.113 -0.125,1.721 -0.046,1.836 0.143,3.956 0.536,6.219 0.77,4.444 2.314,9.423 4.358,13.813 -9.745,7.793 -23.634,5.897 -31.827,-4.675 -0.941,-1.215 -1.808,-2.543 -2.583,-3.986 -0.955,-1.775 -1.775,-3.72 -2.429,-5.835 -0.411,-1.33 -0.758,-2.727 -1.031,-4.189 -0.402,-2.143 -0.643,-4.432 -0.714,-6.856 -0.04,-1.361 -0.03,-2.762 0.045,-4.211 0.117,-2.254 0.38,-4.616 0.8,-7.079 0.232,-1.367 0.511,-2.764 0.843,-4.193 0.505,-2.171 1.134,-4.418 1.884,-6.735 0.389,-1.201 0.804,-2.417 1.262,-3.657 0.068,-0.182 0.141,-0.353 0.209,-0.533 0.789,-2.107 1.627,-4.132 2.494,-6.105 0.632,-1.434 1.282,-2.836 1.951,-4.201 18.616,-37.955 51.511,-49.25 70.079,-44.661 12.771,3.156 23.492,11.676 31.782,22.453 1.387,1.803 2.707,3.667 3.955,5.581 3.246,4.978 6.019,10.285 8.288,15.667 10.635,-2.342 21.084,-5.741 31.226,-9.856 11.354,-4.65 22.377,-10.216 32.628,-17.008 5.115,-3.405 10.049,-7.107 14.587,-11.265 4.53,-4.153 8.71,-8.747 12.034,-13.957 -3.145,5.322 -7.188,10.08 -11.604,14.411 -4.425,4.337 -9.268,8.235 -14.308,11.84 -10.102,7.196 -21.032,13.189 -32.354,18.278 -9.956,4.434 -20.239,8.195 -30.849,10.946 0.93,2.443 1.756,4.89 2.474,7.317 9.507,-1.378 18.935,-3.548 28.176,-6.313 11.109,-3.369 21.994,-7.609 32.296,-13.016 0.299,-0.157 0.602,-0.307 0.901,-0.466 0.119,-0.064 0.241,-0.124 0.36,-0.187 5.326,-2.873 10.499,-6.059 15.326,-9.725 4.819,-3.664 9.331,-7.792 13.082,-12.585 -3.585,4.919 -7.974,9.225 -12.696,13.076 -4.731,3.856 -9.831,7.244 -15.101,10.324 -0.073,0.043 -0.148,0.082 -0.221,0.125 -0.292,0.169 -0.588,0.328 -0.879,0.494 -10.245,5.848 -21.133,10.529 -32.306,14.342 -9.135,3.076 -18.479,5.582 -28.003,7.318 0.689,2.686 1.244,5.332 1.658,7.909 8.853,-0.531 17.695,-1.724 26.423,-3.448 11.767,-2.313 23.368,-5.643 34.457,-10.275 1.719,-0.723 3.421,-1.492 5.111,-2.283 0.304,-0.142 0.604,-0.291 0.908,-0.435 3.434,-1.643 6.802,-3.426 10.041,-5.44 5.101,-3.174 9.937,-6.837 14.108,-11.207 -4.017,4.512 -8.747,8.364 -13.77,11.733 -3.218,2.159 -6.58,4.089 -10.019,5.877 -0.299,0.155 -0.595,0.315 -0.896,0.468 -1.645,0.839 -3.303,1.657 -4.979,2.431 -11.019,5.057 -22.614,8.825 -34.434,11.575 -8.707,2.031 -17.549,3.544 -26.482,4.401 0.328,2.838 0.476,5.57 0.435,8.144 8.802,0.298 17.649,-0.022 26.44,-0.864 11.946,-1.138 23.828,-3.305 35.319,-6.841 2.474,-0.768 4.926,-1.617 7.352,-2.53 0.322,-0.121 0.646,-0.231 0.967,-0.355 2.87,-1.109 5.697,-2.332 8.457,-3.701 5.383,-2.68 10.541,-5.881 15.11,-9.838 -4.431,4.115 -9.5,7.51 -14.823,10.393 -2.815,1.519 -5.709,2.882 -8.654,4.13 -0.319,0.134 -0.644,0.259 -0.963,0.391 -2.328,0.962 -4.678,1.868 -7.054,2.697 -11.466,3.966 -23.387,6.57 -35.428,8.137 -8.906,1.163 -17.891,1.802 -26.901,1.801 -0.175,1.99 -0.474,3.863 -0.91,5.586 -0.188,0.745 -0.385,1.47 -0.588,2.178 9.626,1.355 19.375,2.015 29.122,2.047 12.106,0.044 24.25,-0.944 36.132,-3.376 1.741,-0.361 3.472,-0.765 5.199,-1.195 0.346,-0.086 0.687,-0.181 1.033,-0.27 3.805,-0.983 7.568,-2.132 11.244,-3.54 5.659,-2.185 11.135,-4.927 16.091,-8.479 -4.831,3.72 -10.238,6.666 -15.856,9.059 -3.786,1.6 -7.679,2.931 -11.625,4.078 -0.349,0.103 -0.693,0.214 -1.041,0.311 -1.582,0.447 -3.173,0.868 -4.77,1.255 -11.9,2.864 -24.129,4.282 -36.37,4.657 -10.078,0.311 -20.187,-0.037 -30.242,-1.138 -0.863,2.475 -1.823,4.698 -2.865,6.693 11.188,2.887 22.633,4.889 34.163,6.037 11.999,1.2 24.131,1.411 36.145,0.173 0.248,-0.026 0.498,-0.042 0.746,-0.069 0.107,-0.012 0.214,-0.029 0.322,-0.041 m -197.263,41.423 c -1.122,-6.092 0.154,-10.496 3.597,-12.021 3.967,-1.757 9.408,0.816 12.653,5.984 1.799,2.866 2.937,5.957 3.565,8.974 -0.454,-0.963 -0.969,-1.913 -1.552,-2.84 -2.743,-4.369 -6.999,-6.995 -10.837,-6.995 -1.068,0 -2.104,0.203 -3.067,0.63 -2.366,1.048 -3.834,3.24 -4.359,6.268 m 121.819,14.791 c 1.907,-5.175 2.046,-9.643 0.071,-11.998 -0.806,-0.962 -2.435,-1.46 -4.387,-1.46 -1.444,0 -3.064,0.272 -4.661,0.831 -0.944,0.33 -2.266,0.91 -3.661,1.856 2.316,-4.863 6.331,-6.852 8.408,-7.579 3.667,-1.284 6.983,-0.829 7.951,0.327 2.185,2.606 1.488,9.625 -3.721,18.023 M 61.14,177 c 0.244,-4.553 2.519,-8.827 5.88,-12.877 0.126,0.705 0.245,1.409 0.375,2.114 1.39,7.567 3.049,15.15 5.406,22.562 1.174,3.704 2.576,7.359 4.28,10.886 1.711,3.516 3.745,6.924 6.344,9.905 2.581,2.971 5.815,5.489 9.527,6.818 3.708,1.363 7.721,1.354 11.437,0.592 -3.782,0.395 -7.669,-0.01 -11.01,-1.633 -3.351,-1.594 -6.073,-4.195 -8.193,-7.178 -2.13,-2.992 -3.718,-6.358 -5.001,-9.829 -1.276,-3.48 -2.266,-7.075 -3.038,-10.729 -1.553,-7.309 -2.436,-14.773 -3.062,-22.293 1.344,2.296 2.744,4.548 4.206,6.755 4.665,7.02 9.868,13.66 15.687,19.733 5.847,6.023 12.361,11.525 19.803,15.493 3.717,1.966 7.68,3.51 11.795,4.322 4.107,0.82 8.357,0.862 12.398,0.026 -4.104,0.465 -8.245,0.033 -12.131,-1.119 -3.897,-1.146 -7.547,-2.969 -10.926,-5.171 -6.757,-4.437 -12.495,-10.255 -17.564,-16.528 -5.038,-6.32 -9.443,-13.139 -13.273,-20.228 -1.91,-3.546 -3.674,-7.167 -5.23,-10.833 -0.497,-1.188 -0.974,-2.379 -1.428,-3.571 0.641,-0.522 1.286,-1.041 1.936,-1.555 0.741,1.465 1.551,2.888 2.422,4.258 4.486,6.884 10.478,12.374 16.951,16.754 6.484,4.405 13.466,7.808 20.583,10.678 7.14,2.824 14.451,5.082 21.826,6.981 -7.155,-2.615 -14.173,-5.57 -20.894,-9.028 -6.692,-3.497 -13.121,-7.478 -18.806,-12.224 -5.689,-4.718 -10.582,-10.293 -13.824,-16.554 -0.899,-1.788 -1.658,-3.624 -2.283,-5.494 0.621,-0.475 1.237,-0.948 1.846,-1.418 1.304,1.654 2.755,3.189 4.355,4.533 2.34,1.973 4.961,3.548 7.692,4.72 2.732,1.176 5.565,1.963 8.4,2.5 2.851,0.457 5.696,0.734 8.527,0.724 5.662,0.053 11.222,-0.71 16.653,-1.842 -5.534,0.391 -11.094,0.386 -16.489,-0.402 -2.7,-0.356 -5.334,-0.988 -7.884,-1.758 -2.526,-0.846 -4.948,-1.897 -7.158,-3.228 -3.862,-2.292 -6.948,-5.499 -9.06,-9.232 4.733,-3.9 8.517,-7.638 9.925,-11.297 60.334,9.333 67,87 23,95.667 -44,8.667 -65.334,-23.667 -64,-50 M 598.096,32.648 c -0.217,-2.992 -0.593,-5.944 -1.003,-8.887 -0.242,-1.458 -0.449,-2.932 -0.728,-4.378 -0.267,-1.448 -0.529,-2.893 -0.886,-4.395 -2.527,-11.925 -7.191,-23.546 -13.555,-34.064 -3.18,-5.263 -6.782,-10.254 -10.718,-14.924 -3.944,-4.663 -8.231,-8.986 -12.75,-12.986 -9.045,-8.004 -19.026,-14.685 -29.466,-20.137 -10.432,-5.5 -21.331,-9.777 -32.411,-13.149 -22.194,-6.665 -45.135,-9.579 -67.99,-9.474 -22.863,0.135 -45.712,3.315 -67.901,9.63 -8.047,2.298 -16.013,5.021 -23.842,8.18 -2.061,-7.086 -4.148,-14.384 -6.186,-21.578 -3.019,-10.653 -28.519,-8.673 -25.853,-31.153 2.706,-22.82 -8.25,-2.098 -14.582,-2.264 -6.334,-0.166 -10.5,-10 -12.668,-12.667 -2.166,-2.667 -15.5,-5 -20.333,-4.333 -4.833,0.667 -1.584,4.514 1.167,7.166 1.105,1.067 13.166,7.292 -10.667,3.334 -5.078,-0.843 -9.833,-2.774 -13.667,-4.441 -3.833,-1.667 -21.333,-4.643 -22.667,-1.976 -1.332,2.667 6.417,1.976 18.434,12.75 1.775,1.591 3.971,3.119 7.411,3.494 -2.487,0.767 -5.313,1.667 -5.313,1.667 -3.5,-1.5 -16.949,10e-4 -19.782,3.001 -2.834,3 0.583,1.083 5.75,1.25 5.166,0.167 9.772,2.571 12.573,4.187 3.101,1.789 14.069,1.254 15.334,1.145 8.909,-0.765 14.307,-0.104 17.625,1.105 1.834,2.743 3.531,7.145 4.974,11.773 -14.494,-2.846 -30.85,-4.6 -49.589,-5.774 -28.581,-1.789 -61.011,-25.421 -100.251,-11.418 C 216.307,-39.25 207.806,23 204.14,51.545 208.14,-62.91 95.806,-121 89.539,-125.5 c -3.113,-2.235 -10.963,-1.878 -19.423,-0.383 0.127,-3.119 0.441,-5.385 0.378,-6.367 -0.334,-5.167 -3.396,-5.176 -9.688,-5.917 -12.375,-1.458 -12.675,-11.167 -14.842,-13.834 -2.167,-2.667 -15.5,-5 -20.333,-4.333 -4.833,0.667 0.914,3.633 3.592,6.083 3.161,2.892 10.741,8.375 -13.092,4.417 -5.078,-0.844 -9.798,-2.858 -13.667,-4.441 -10.324,-4.225 -24.408,-3.808 -25.158,-2.392 -1.001,1.892 1.099,0.426 8.356,4.32 -5.731,0.823 -11.24,2.151 -12.606,3.597 -2.682,2.84 -0.516,2.155 5.318,2.344 4.11,0.134 7.604,0.585 10.327,1.48 -4.126,0.566 -8.154,1.686 -9.561,3.176 -2.834,3 0.583,1.083 5.75,1.25 5.166,0.167 9.773,2.57 12.574,4.188 3.101,1.788 14.069,1.252 15.333,1.144 5.348,-0.459 9.419,-0.4 12.55,-0.023 1.428,1.655 3.191,3.693 5.45,6.189 5.892,6.512 10.667,32 10.667,32 0,0 -10e-4,0.005 -0.02,0.287 -14.457,8.598 -55.449,19.152 -74.012,27.478 -47.555,-16.816 -51.071,-51.517 -51.376,-56.24 -0.333,-5.167 -3.542,-5.448 -9.875,-5.614 -6.333,-0.166 -7.708,-10.242 -9.875,-12.909 -2.167,-2.667 -19.417,-4.418 -24.25,-3.751 -4.833,0.667 -1.166,0.5 4.668,5.433 1.173,0.992 13.582,8.443 -10.251,4.485 -5.078,-0.844 -9.83,-2.78 -13.667,-4.441 -8.75,-3.788 -22.633,-4.614 -23.375,-1.726 -0.211,0.821 5.856,2.29 10.959,5.167 -5.873,0.422 -15.16,0.487 -16.667,2.083 -2.682,2.84 -0.841,2.156 4.993,2.345 3.831,0.124 8.324,0.325 10.054,1.692 -3.81,0.648 -7.434,1.789 -8.779,3.213 -2.834,3 1.498,1.646 6.664,1.813 5.167,0.167 7.318,1.354 12.568,5.437 2.826,2.198 12.649,-0.982 13.917,-0.917 6.391,0.331 10.927,1.294 14.208,2.442 1.093,1.114 2.339,2.346 3.792,3.724 17.666,16.751 10.666,32 10.666,32 l -2.333,34 c -1.373,19.996 1.521,35.949 4.137,45.706 -6.403,-3.157 -12.64,-6.658 -18.612,-10.586 -5.123,-3.385 -10.065,-7.068 -14.615,-11.207 -4.542,-4.136 -8.735,-8.713 -12.077,-13.912 3.128,5.331 7.157,10.107 11.562,14.457 4.413,4.356 9.247,8.273 14.278,11.898 6.483,4.649 13.313,8.797 20.368,12.535 0.297,0.986 0.58,1.871 0.846,2.67 -1.27,3.204 -2.36,6.423 -3.28,9.649 -6.426,-2.466 -12.723,-5.271 -18.805,-8.509 -5.331,-2.852 -10.511,-6.016 -15.348,-9.665 -4.829,-3.644 -9.353,-7.755 -13.121,-12.535 3.569,4.932 7.945,9.255 12.658,13.125 4.72,3.875 9.814,7.283 15.078,10.384 6.087,3.569 12.42,6.702 18.906,9.491 -1.113,4.271 -1.946,8.548 -2.509,12.814 -5.906,-1.706 -11.727,-3.71 -17.414,-6.063 -5.538,-2.308 -10.959,-4.938 -16.075,-8.096 -5.111,-3.154 -9.958,-6.799 -14.144,-11.155 4.002,4.526 8.722,8.396 13.737,11.785 5.023,3.396 10.381,6.277 15.877,8.838 5.773,2.673 11.709,4.984 17.751,6.988 -0.504,4.554 -0.719,9.089 -0.676,13.584 -6.162,-1.126 -12.266,-2.567 -18.264,-4.39 -5.739,-1.76 -11.388,-3.867 -16.786,-6.523 -5.388,-2.659 -10.556,-5.841 -15.139,-9.782 4.416,4.128 9.477,7.545 14.795,10.448 5.327,2.902 10.938,5.264 16.66,7.282 6.145,2.148 12.424,3.895 18.782,5.311 0.134,4.597 0.527,9.146 1.147,13.618 -7.144,-0.487 -14.262,-1.385 -21.29,-2.798 -5.933,-1.206 -11.805,-2.788 -17.479,-4.94 -5.663,-2.164 -11.146,-4.886 -16.115,-8.421 4.819,3.736 10.218,6.703 15.834,9.116 5.627,2.405 11.487,4.244 17.431,5.709 7.227,1.765 14.578,2.989 21.982,3.78 0.691,4.39 1.593,8.705 2.67,12.917 -8.727,0.448 -17.487,0.32 -26.186,-0.589 -6.121,-0.653 -12.212,-1.705 -18.156,-3.359 -5.933,-1.665 -11.729,-3.936 -17.075,-7.074 5.215,3.353 10.948,5.874 16.859,7.792 5.92,1.907 12.025,3.219 18.182,4.127 8.949,1.305 18.005,1.789 27.054,1.663 5.167,18.793 13.709,35.42 22.239,47.585 -57.334,7.666 -69.334,85.333 -33.667,99.333 12.937,5.078 23.848,1.298 33.072,-5.885 -1.401,-4.428 -2.68,-8.898 -3.75,-13.428 -1.664,-6.994 -2.823,-14.14 -3.103,-21.396 -0.187,-5.957 0.232,-12.067 1.955,-17.927 -3.159,4.017 -6.05,8.245 -8.542,12.706 -3.529,6.333 -6.227,13.223 -7.092,20.451 -0.423,3.605 -0.347,7.283 0.357,10.864 0.695,3.582 2.027,7.047 3.881,10.226 -1.995,-3.09 -3.499,-6.516 -4.37,-10.118 -0.879,-3.601 -1.13,-7.354 -0.863,-11.064 0.548,-7.443 2.999,-14.645 6.317,-21.289 3.334,-6.661 7.499,-12.878 12.15,-18.687 0.702,-0.875 1.44,-1.722 2.165,-2.578 l -3.439,1.631 c -6.041,2.874 -12.01,5.864 -17.601,9.45 -2.786,1.799 -5.459,3.772 -7.882,6.008 -2.414,2.238 -4.587,4.767 -6.088,7.686 -1.538,2.897 -2.156,6.26 -1.741,9.541 0.401,3.294 1.778,6.426 3.545,9.272 -1.903,-2.754 -3.457,-5.833 -4.04,-9.2 -0.598,-3.349 -0.13,-6.925 1.333,-10.042 1.422,-3.142 3.562,-5.892 5.944,-8.331 2.394,-2.44 5.044,-4.603 7.801,-6.585 5.533,-3.951 11.445,-7.284 17.374,-10.476 l 8.864,-4.753 c 0.729,-0.402 1.46,-0.808 2.185,-1.221 0.279,-0.253 0.549,-0.522 0.832,-0.767 l 0.667,-0.561 c 1.827,-1.777 3.723,-3.497 5.777,-5.116 l 1.74,2.346 2.003,1.333 c -0.529,0.729 -0.952,1.189 -1.405,1.742 l -1.286,1.567 c -0.838,1.046 -1.615,2.122 -2.346,3.228 -1.462,2.211 -2.679,4.571 -3.553,7.058 -1.792,4.954 -2.081,10.442 -0.749,15.649 0.646,2.605 1.643,5.134 2.851,7.572 1.279,2.4 2.709,4.744 4.375,6.93 1.666,2.252 3.501,4.381 5.449,6.411 7.094,-9.687 12.586,-18.089 16.88,-18.58 -1.709,9.145 4.166,12.583 4.166,12.583 0,0 -1.875,-14 7.834,-5.583 -4.834,11.083 0,16.333 0,16.333 -2.131,-6.485 5.791,-14.125 15.416,-8 5.163,3.286 40.75,17.167 52.75,3.5 12,-13.667 35.613,53.423 142.75,28.25 C 275.14,203 368.807,110 363.474,-2 c 0,0 2.128,-13.703 -5.37,-32.093 4.897,-2.095 9.898,-4.001 14.984,-5.701 18.107,-6.051 37.254,-9.622 56.519,-10.595 19.255,-0.962 38.686,0.668 57.116,5.318 9.193,2.354 18.148,5.424 26.552,9.387 8.428,3.921 16.299,8.732 23.307,14.388 14.088,11.252 24.314,26.214 28.809,43.43 0.308,1.048 0.566,2.186 0.831,3.319 0.274,1.129 0.477,2.259 0.724,3.389 0.415,2.261 0.817,4.521 1.079,6.777 0.582,4.515 0.79,9.011 0.671,13.458 -0.258,8.894 -2.05,17.563 -5.415,25.742 -3.339,8.187 -8.285,15.86 -14.392,22.854 -6.116,6.996 -13.378,13.302 -21.317,18.937 -3.968,2.823 -8.114,5.473 -12.384,7.981 -2.133,1.254 -4.301,2.47 -6.497,3.652 -2.18,1.174 -4.477,2.365 -6.537,3.348 -8.496,4.089 -18.012,7.174 -27.884,9.992 -9.879,2.813 -20.145,5.377 -30.457,8.255 -10.313,2.875 -20.701,6.03 -30.918,9.831 -10.231,3.753 -20.282,8.164 -30.001,13.194 -9.707,5.084 -19.078,10.702 -28.016,17.057 -4.532,3.199 -8.942,6.642 -13.13,10.435 -4.183,3.794 -8.181,7.891 -11.754,12.482 -3.557,4.593 -6.765,9.619 -9.127,15.22 -1.201,2.783 -2.122,5.738 -2.829,8.756 -0.691,3.03 -1.033,6.178 -1.072,9.333 -0.109,6.33 1.44,12.691 4.128,18.305 2.731,5.613 6.578,10.48 10.975,14.479 8.84,8.031 19.591,12.87 30.514,15.58 5.48,1.357 11.056,2.146 16.631,2.44 5.575,0.317 11.153,0.109 16.659,-0.546 11.02,-1.279 21.739,-4.427 31.683,-9.073 9.852,-4.649 19.092,-10.386 27.603,-17.042 8.506,-6.652 16.251,-14.179 23.255,-22.25 7.031,-8.059 13.354,-16.627 19.394,-25.303 6.063,-8.658 11.801,-17.49 18.21,-25.742 3.223,-4.101 6.616,-8.073 10.461,-11.541 3.831,-3.461 8.139,-6.457 12.995,-8.224 4.838,-1.805 10.133,-2.279 15.315,-1.661 5.196,0.618 10.249,2.258 15.093,4.316 -4.745,-2.275 -9.736,-4.156 -14.992,-5.026 -5.236,-0.868 -10.74,-0.643 -15.88,1.014 -5.159,1.616 -9.81,4.548 -13.935,7.952 -4.146,3.412 -7.806,7.327 -11.277,11.353 -6.9,8.101 -13.052,16.698 -19.463,25.019 -6.386,8.338 -12.978,16.465 -20.16,23.978 -7.157,7.529 -14.927,14.408 -23.307,20.37 -8.368,5.959 -17.394,10.989 -26.789,14.92 -9.321,3.878 -19.204,6.308 -29.17,7.031 -4.979,0.376 -9.976,0.345 -14.908,-0.15 -4.933,-0.472 -9.803,-1.382 -14.499,-2.764 -9.364,-2.732 -18.193,-7.336 -24.712,-13.839 -3.258,-3.228 -5.863,-6.93 -7.577,-10.878 -1.66,-3.965 -2.496,-8.154 -2.228,-12.371 0.203,-4.214 1.403,-8.432 3.318,-12.469 1.91,-4.041 4.573,-7.878 7.62,-11.48 6.17,-7.192 13.964,-13.384 22.347,-18.773 8.493,-5.492 17.474,-10.335 26.637,-14.622 9.202,-4.246 18.664,-7.907 28.372,-10.98 9.691,-3.118 19.616,-5.658 29.717,-7.99 10.108,-2.341 20.402,-4.422 30.921,-6.909 10.499,-2.508 21.284,-5.392 32.027,-9.954 2.75,-1.168 5.183,-2.302 7.702,-3.511 2.5,-1.205 4.988,-2.457 7.458,-3.762 4.94,-2.611 9.817,-5.423 14.582,-8.498 9.526,-6.14 18.662,-13.299 26.829,-21.816 8.145,-8.504 15.305,-18.431 20.456,-29.552 5.187,-11.091 8.285,-23.27 9.184,-35.417 0.449,-6.072 0.429,-12.145 -0.059,-18.112 M -88.227,206.48 c 0.844,4.499 1.897,8.961 3.074,13.395 7.411,-5.856 13.728,-13.883 19.124,-21.232 -2.099,-1.935 -4.099,-3.984 -5.944,-6.185 -1.824,-2.12 -3.434,-4.425 -4.906,-6.831 -1.403,-2.445 -2.609,-5.028 -3.463,-7.758 -0.856,-2.726 -1.345,-5.598 -1.374,-8.497 -0.035,-2.897 0.387,-5.807 1.192,-8.599 0.711,-2.496 1.744,-4.887 2.982,-7.152 -0.083,0.042 -0.165,0.083 -0.247,0.125 -0.044,0.038 -0.089,0.075 -0.133,0.112 -0.248,0.231 -0.5,0.456 -0.745,0.688 -0.953,0.902 -1.875,1.839 -2.798,2.774 -1.967,2.243 -3.618,4.767 -4.866,7.521 -2.894,6.261 -3.877,13.378 -3.978,20.426 -0.056,7.081 0.753,14.198 2.082,21.213"
             style="fill:#000000;fill-opacity:1;fill-rule:nonzero;stroke:none"
             id="path10527" />
        </g>
      </g>
    </g>
  </g>
</svg>
